# xmcd
#
# Track frame offsets: 
#        150
#        19544
#        36317
#        55554
#        77255
#        98032
#        120139
#        138864
#        158156
#        177950
#        197401
#        213769
#
# Disc length: 3042 seconds
#
# Revision: 2
# Processed by: cddbd v1.5.2PL0 Copyright (c) Steve Scherf et al.
# Submitted via: ExactAudioCopyFreeDBPlugin 1.0
#
DISCID=800be00c
DTITLE=Oliver Dragojevic - Samo Da Je Tu
DYEAR=2010
DGENRE=Country
TTITLE0=Jubavi mala
TTITLE1=Vrime bez vrimena
TTITLE2=Dao bi se lladit
TTITLE3=Prije sna
TTITLE4=Tristeca
TTITLE5=Sve dok mi je tu
TTITLE6=Moja ljubav i moj križ
TTITLE7=Za onu viru
TTITLE8=Više nismo svoji
TTITLE9=Ne postojim
TTITLE10=Vjerujem u anđele
TTITLE11=Davno izgubljena rič
EXTD=
EXTT0=
EXTT1=
EXTT2=
EXTT3=
EXTT4=
EXTT5=
EXTT6=
EXTT7=
EXTT8=
EXTT9=
EXTT10=
EXTT11=
PLAYORDER=
